<svg xmlns="http://www.w3.org/2000/svg" width="744.848" height="747.077" xmlns:v="https://vecta.io/nano"><g fill="#f2f2f2"><path d="M71.63 629.347l-6.56-25.872c-11.63-4.93-23.53-9.2-35.643-12.788l-.828 12.024-3.358-13.247C10.22 585.17 0 583.28 0 583.28s13.8 52.49 42.754 92.617l33.734 5.926-26.207 3.78c3.642 4.382 7.556 8.53 11.72 12.422 42.115 39.092 89.024 57.028 104.773 40.06s-5.625-62.412-47.74-101.5c-13.056-12.12-29.457-21.844-45.875-29.5z"/><path d="M134.015 601.245l7.758-25.538a335.94 335.94 0 0 0-23.9-29.371l-6.924 9.865 3.972-13.076C104.28 531.69 96.51 524.8 96.51 524.8s-15.315 52.067-11.275 101.384l25.815 22.5-24.392-10.312a135.92 135.92 0 0 0 3.614 16.694c15.846 55.234 46.73 94.835 68.983 88.45s27.446-56.335 11.6-111.57c-4.912-17.123-13.926-33.926-24.023-48.965z"/></g><path d="M519.75 176.983h-4.092v-112.1c0-17.208-6.836-33.71-19.004-45.88S467.984 0 450.776 0H213.27c-35.834 0-64.883 29.05-64.883 64.883v615c0 17.208 6.836 33.71 19.004 45.88s28.67 19.004 45.88 19.004h237.507c35.834-.001 64.882-29.05 64.882-64.883V256.778h4.092z" fill="#e6e6e6"/><path d="M453.394 16.874h-31a23.02 23.02 0 0 1-21.316 31.714H265.013a23.02 23.02 0 0 1-21.314-31.714h-28.956c-12.85 0-25.175 5.105-34.262 14.192s-14.192 21.41-14.192 34.262v614.107c0 26.76 21.694 48.454 48.454 48.454h238.65c26.76 0 48.454-21.694 48.454-48.454h0V65.327c-.001-26.76-21.694-48.453-48.454-48.453z" fill="#fff"/><path d="M303.658 261.503a24.44 24.44 0 0 1 12.23-21.174c-10.276-5.935-23.33-3.634-30.957 5.455s-7.628 22.344 0 31.434a24.44 24.44 0 0 0 30.957 5.455c-7.568-4.363-12.23-12.435-12.23-21.17zm30.737 0c-.002-8.737 4.66-16.8 12.23-21.174-10.276-5.935-23.33-3.634-30.957 5.455s-7.628 22.344 0 31.434a24.44 24.44 0 0 0 30.957 5.455c-7.568-4.363-12.23-12.435-12.23-21.17z" fill="#ccc"/><circle cx="364.434" cy="261.502" r="24.45" fill="#6c63ff"/><path d="M405.296 337.87h-142.5c-2.825-.003-5.114-2.292-5.117-5.117v-142.5c.003-2.825 2.292-5.114 5.117-5.117h142.5c2.825.003 5.114 2.292 5.117 5.117v142.5c-.003 2.825-2.292 5.114-5.117 5.117zm-142.5-150.686c-1.695.002-3.068 1.375-3.07 3.07v142.5c.002 1.695 1.375 3.068 3.07 3.07h142.5c1.695-.002 3.068-1.375 3.07-3.07v-142.5c-.002-1.695-1.375-3.068-3.07-3.07zm-44.234 259.918h218.552v2.047H218.562z" fill="#ccc"/><circle cx="225.464" cy="427.42" r="6.902" fill="#6c63ff"/><path fill="#ccc" d="M218.562 516.118h218.552v2.047H218.562z"/><g fill="#6c63ff"><circle cx="225.464" cy="496.437" r="6.902"/><path d="M433.114 594.7h-69.068c-2.484-.003-4.497-2.016-4.5-4.5v-24.208c.003-2.484 2.016-4.497 4.5-4.5h69.068c2.484.003 4.497 2.016 4.5 4.5V590.2c-.003 2.484-2.016 4.497-4.5 4.5z"/><circle cx="247.978" cy="427.42" r="6.902"/><circle cx="270.492" cy="427.42" r="6.902"/><circle cx="247.978" cy="496.437" r="6.902"/><circle cx="270.492" cy="496.437" r="6.902"/></g><path d="M742.066 747.077H24.08c-1.537 0-2.782-.546-2.782-1.218s1.245-1.22 2.782-1.22h717.986c1.536 0 2.782.546 2.782 1.22s-1.246 1.218-2.782 1.218z" fill="#3f3d56"/><path d="M564.677 489.46c.5.224.962.488 1.4.787l44.852-19.143 1.6-11.815 17.922-.1-1.06 27.098-59.2 15.656a10.61 10.61 0 0 1-.447 1.208c-2.4 5.098-8.448 7.3-13.56 4.948s-7.356-8.407-5.024-13.53a10.24 10.24 0 0 1 13.503-5.1zm72.303 245.56h-12.26l-5.832-47.288 18.094.001-.002 47.287z" fill="#ffb8b8"/><path d="M615.963 731.518h23.644a0 0 0 0 1 0 0v14.887a0 0 0 0 1 0 0h-38.53a0 0 0 0 1 0 0h0a14.887 14.887 0 0 1 14.887-14.887z" fill="#2f2e41"/><path fill="#ffb8b8" d="M684.66 731.557l-12.2 1.202-10.44-46.488 18.007-1.774 4.635 47.06z"/><path d="M663.4 730.13l23.53-2.318 1.46 14.815-38.345 3.777c-.387-3.93.803-7.85 3.307-10.903s6.12-4.984 10.05-5.37z" fill="#2f2e41"/><circle cx="640.393" cy="384.574" r="24.561" fill="#ffb8b8"/><path d="M621.98 725.458a4.47 4.47 0 0 1-4.415-3.697L589.98 568.165c-.01-.073-.016-.147-.016-.222v-8.588a1.49 1.49 0 0 1 .279-.872l2.74-3.838a1.48 1.48 0 0 1 1.144-.625c15.622-.732 66.784-2.88 69.256.21h0c2.482 3.104 1.605 12.507 1.404 14.36l.01.193 22.985 146.995c.374 2.44-1.28 4.727-3.715 5.135l-14.356 2.365a4.52 4.52 0 0 1-5.025-3.093l-24.49-80.387a.5.5 0 0 0-.98.139l1.12 79.708a4.52 4.52 0 0 1-4.093 4.536L622.4 725.44c-.14.013-.28.02-.42.02z" fill="#2f2e41"/><path d="M624.805 418.792c-4.286 2.548-6.85 7.23-8.323 11.995a113.68 113.68 0 0 0-4.884 27.159l-1.556 27.6-19.255 73.17c16.69 14.12 26.315 10.912 48.78-.64s25.032 3.85 25.032 3.85l4.492-62.258 6.418-68.032c-1.44-1.735-3.07-3.303-4.86-4.674a49.66 49.66 0 0 0-42.442-8.995z" fill="#6c63ff"/><path d="M618.55 504.24c.518.195 1.02.43 1.5.704l44.348-22.197.736-12.026 18.294-1.26.98 27.413-59.266 19.6c-.99 4.25-4.508 7.443-8.833 8.02s-8.557-1.582-10.627-5.423-1.548-8.563 1.312-11.86 7.46-4.478 11.556-2.97z" fill="#ffb8b8"/><path d="M675.2 431.95c10.912 3.85 12.834 45.574 12.834 45.574-12.837-7.06-28.24 4.493-28.24 4.493l-7.06-25.032a24.53 24.53 0 0 1 5.134-23.106s6.422-5.782 17.334-1.928z" fill="#6c63ff"/><path d="M662.415 391.07c-3.06-2.448-7.235 2.002-7.235 2.002l-2.448-22.033s-15.3 1.833-25.093-.612-11.323 8.875-11.323 8.875a78.58 78.58 0 0 1-.306-13.771c.612-5.508 8.568-11.017 22.645-14.69s21.42 12.24 21.42 12.24c9.794 4.896 5.4 30.436 2.34 27.988z" fill="#2f2e41"/></svg>