<svg xmlns="http://www.w3.org/2000/svg" width="588" height="409" fill="none" xmlns:v="https://vecta.io/nano"><g clip-path="url(#A)"><path d="M117.155 409c64.703 0 117.155-3.983 117.155-8.896s-52.452-8.895-117.155-8.895S0 395.19 0 400.104 52.452 409 117.155 409z" fill="#e6e6e6"/><g fill="#2f2e41"><path d="M89.55 90.75c20.4-8.67 45.783-3.177 70.583.636.23-4.617 3.028-10.236.098-13.457-3.56-3.913-3.232-8.025-1.1-12.16 5.478-10.575-2.37-21.827-10.295-31.183a17.55 17.55 0 0 0-6.589-4.825 17.57 17.57 0 0 0-8.06-1.322l-14.68 1.048a17.58 17.58 0 0 0-15.61 12.562h0c-3.505 4.766-5.38 9.52-4.2 14.247-5.25 3.587-6.132 7.917-3.773 12.798 2 3.073 1.98 6.065-.1 8.974a41.43 41.43 0 0 0-6.162 12.236l-.13.445zm484.517 262.824H158.524c-3.696 0-7.24-1.468-9.853-4.08a13.93 13.93 0 0 1-4.081-9.85c150.634-17.502 298.438-17.502 443.4 0a13.93 13.93 0 0 1-4.081 9.85c-2.613 2.612-6.157 4.08-9.852 4.08z"/></g><path d="M588 340.463l-443.4-.82 51.636-86.857V62.267a17.59 17.59 0 0 1 1.34-6.739c.885-2.136 2.183-4.078 3.818-5.713a17.61 17.61 0 0 1 12.455-5.157h302.453c2.313 0 4.604.455 6.74 1.34s4.08 2.182 5.714 3.817a17.6 17.6 0 0 1 3.818 5.713 17.61 17.61 0 0 1 1.341 6.739v191.83L588 340.463z" fill="#3f3d56"/><path d="M213.438 56.95a5.74 5.74 0 0 0-5.738 5.736V236.4c.002 1.52.607 2.978 1.683 4.054s2.533 1.68 4.055 1.682h305.715c1.52-.002 2.98-.607 4.054-1.682s1.68-2.534 1.683-4.054V62.685c-.002-1.52-.607-2.98-1.682-4.054s-2.534-1.68-4.055-1.682H213.438z" fill="#fff"/><path d="M214.72 265.078c-.47.001-.93.136-1.326.39s-.71.615-.908 1.042l-15.835 34.415c-.172.374-.248.786-.22 1.197s.16.81.382 1.156a2.46 2.46 0 0 0 .891.831c.36.198.767.302 1.18.302H531.88a2.46 2.46 0 0 0 1.197-.312c.366-.204.674-.498.894-.854s.346-.764.365-1.182a2.46 2.46 0 0 0-.257-1.21l-17.212-34.415c-.203-.41-.517-.753-.905-.994s-.837-.366-1.294-.365H214.72z" fill="#2f2e41"/><path d="M365.066 54.08a3.69 3.69 0 0 0 3.688-3.687 3.69 3.69 0 0 0-3.688-3.687 3.69 3.69 0 0 0-3.689 3.687 3.69 3.69 0 0 0 3.689 3.687z" fill="#fff"/><g fill="#2f2e41"><path d="M332.335 310.965c-.54 0-1.066.18-1.495.508a2.47 2.47 0 0 0-.88 1.31l-3.972 14.75a2.46 2.46 0 0 0 .422 2.136c.23.3.525.542.864.7s.7.254 1.088.254H403.9a2.46 2.46 0 0 0 1.127-.274 2.45 2.45 0 0 0 .876-.76c.226-.32.375-.688.43-1.076a2.47 2.47 0 0 0-.111-1.154l-5.107-14.75a2.45 2.45 0 0 0-.897-1.198c-.417-.296-.915-.456-1.426-.456h-66.46zm201.57-61.045v3.277H195.98l.254-.4v-2.868h337.672z"/></g><path d="M524.48 67.19a3.28 3.28 0 0 0 3.279-3.278 3.28 3.28 0 0 0-3.279-3.278 3.28 3.28 0 0 0-3.278 3.278 3.28 3.28 0 0 0 3.278 3.278z" fill="#fff"/><path d="M484.43 183.213H248.16c-1.16-.002-2.272-.463-3.092-1.283a4.38 4.38 0 0 1-1.283-3.092v-58.593a4.38 4.38 0 0 1 4.375-4.374H484.43a4.38 4.38 0 0 1 4.375 4.374v58.593a4.38 4.38 0 0 1-1.283 3.092c-.82.82-1.932 1.28-3.092 1.283h0zM248.16 117.62c-.696 0-1.363.277-1.855.77a2.63 2.63 0 0 0-.77 1.855v58.593a2.63 2.63 0 0 0 2.625 2.625H484.43a2.63 2.63 0 0 0 2.625-2.625v-58.593a2.63 2.63 0 0 0-.77-1.855c-.492-.492-1.16-.77-1.855-.77H248.16z" fill="#e6e6e6"/><path d="M195.398 154.434l-43.676 23.215-.552-19.346c14.255-2.38 27.818-6.52 40.358-13.265l4.568-11.283a7.65 7.65 0 0 1 2.348-3.13c1.04-.823 2.277-1.36 3.59-1.56a7.65 7.65 0 0 1 3.891.419 7.64 7.64 0 0 1 3.175 2.287h0a7.65 7.65 0 0 1-.673 10.429l-13.028 12.235z" fill="#ffb8b8"/><g fill="#2f2e41"><path d="M88.68 288.465c-.32-1.168-.386-2.39-.198-3.587s.627-2.34 1.288-3.354l9.594-14.72c2.27-3.482 5.752-5.997 9.77-7.057a16.77 16.77 0 0 1 11.981 1.32h0c-4.032 6.86-3.47 12.88 1.393 18.112a87.24 87.24 0 0 0-20.715 14.118c-1.13.77-2.427 1.26-3.784 1.427s-2.734.007-4.017-.465a8.59 8.59 0 0 1-3.358-2.253 8.58 8.58 0 0 1-1.953-3.541h0z"/><path d="M197.388 269.218c-1.452 2.42-3.502 4.424-5.952 5.824s-5.22 2.145-8.04 2.166l-63.738.483-2.765-16.03 28.196-8.29-23.773-18.24 25.985-30.4 47.195 43.977a16.46 16.46 0 0 1 2.893 20.509h0z"/><path d="M109.705 378.84H94.778c-13.402-91.846-27.045-183.948 13.27-218.325l47.545 7.738-6.08 40.35-26.537 30.4-13.27 139.838z"/><path d="M122.827 399.645a8.59 8.59 0 0 1-6.943-1.089l-16.208-2.178a16.76 16.76 0 0 1-5.74-21.746c6.864 4.03 12.885 3.47 18.118-1.393 3.697 7.463 9.788 7.008 15.605 13.295a8.57 8.57 0 0 1 1.427 3.784 8.58 8.58 0 0 1-.465 4.016 8.57 8.57 0 0 1-2.253 3.358c-1.008.924-2.222 1.593-3.54 1.953h0z"/></g><path d="M145.088 99.162l-27.643-6.633c4.59-9.395 4.97-19.85 2.764-30.952l18.798-.553c.59 13.807 2.37 26.706 6.08 38.138z" fill="#ffb8b8"/><path d="M152.685 184.894c-20.123 13.71-34.34.47-45.19-19.958 1.507-12.5-.934-27.458-5.455-43.712-2.01-7.17-1.26-14.83 2.104-21.474a29.76 29.76 0 0 1 16.066-14.406h0l23.773 9.95c20.186 16.45 24.16 34.268 16.586 53.06l-7.883 36.54z" fill="#6c63ff"/><path d="M94.778 112.98l-22.114 11.607 39.254 23.215 5.46 13.47c.365.9.542 1.862.522 2.832s-.237 1.926-.64 2.81-.98 1.675-1.697 2.327a7.14 7.14 0 0 1-2.478 1.469h0a7.14 7.14 0 0 1-3.249.331c-1.093-.142-2.14-.535-3.056-1.148s-1.68-1.43-2.226-2.388-.867-2.028-.932-3.13l-.552-9.387-49.9-16.46c-1.68-.554-3.214-1.484-4.482-2.718a11.67 11.67 0 0 1-2.839-4.407h0a11.66 11.66 0 0 1 4.377-13.567L90.355 90.32l4.423 22.66z" fill="#ffb8b8"/><path d="M116.892 115.19c-9.223-4.04-17.6.35-28.195 3.87l-1.66-29.294c10.51-5.6 20.533-7.11 29.854-2.764v28.19z" fill="#6c63ff"/><path d="M127.925 75.535a17.65 17.65 0 0 0 17.649-17.644 17.65 17.65 0 0 0-17.649-17.645 17.65 17.65 0 0 0-17.649 17.645 17.65 17.65 0 0 0 17.649 17.645z" fill="#ffb8b8"/><path d="M149.04 55.664c-17.474 1.71-30.79-1.146-39.3-9.28v-6.55h37.816l1.483 15.833z" fill="#2f2e41"/><g fill="#e6e6e6"><path d="M284.872 165.112c9.844 0 17.823-7.978 17.823-17.82s-7.98-17.818-17.823-17.818-17.822 7.978-17.822 17.818 7.98 17.82 17.822 17.82zm41.163-29.697c-.4-.001-.778.075-1.14.224s-.7.368-.965.644a2.98 2.98 0 0 0-.645.964 2.96 2.96 0 0 0-.227 1.137c0 .4.077.777.227 1.138a2.99 2.99 0 0 0 .645.964 2.96 2.96 0 0 0 .965.643c.36.15.748.226 1.14.225H466.07a2.97 2.97 0 0 0 2.971-2.97 2.97 2.97 0 0 0-2.971-2.969H326.035zm0 17.818a2.97 2.97 0 0 0-2.101 5.07c.557.556 1.313.87 2.1.87h60.257c.788 0 1.544-.313 2.1-.87a2.97 2.97 0 0 0-2.101-5.07h-60.257z"/></g><path d="M369.373 204.717c31.686 0 57.373-25.68 57.373-57.36S401.06 90 369.373 90 312 115.68 312 147.358s25.687 57.36 57.373 57.36z" fill="#6c63ff"/><g fill="#fff"><path d="M393.142 172.35h-47.538c-.87 0-1.703-.346-2.317-.96s-.96-1.447-.96-2.316v-28.68a3.28 3.28 0 0 1 3.278-3.277h47.538a3.28 3.28 0 0 1 2.317.961c.614.614.96 1.448.96 2.316v28.68a3.28 3.28 0 0 1-.961 2.316c-.615.615-1.448.96-2.317.96zm-47.538-31.956v28.68h47.54l-.002-28.68-47.538.001z"/><path d="M384.126 140.393H354.62v-13.1c0-9.496 6.204-16.388 14.753-16.388s14.753 6.892 14.753 16.388v13.1zm-26.228-3.277h22.95v-9.833c0-7.72-4.718-13.11-11.474-13.11s-11.475 5.392-11.475 13.11v9.833z"/></g></g><defs><clipPath id="A"><path fill="#fff" d="M0 0h588v409H0z"/></clipPath></defs></svg>