<svg xmlns="http://www.w3.org/2000/svg" xmlns:xlink="http://www.w3.org/1999/xlink" width="918.14" height="765.54" xmlns:v="https://vecta.io/nano"><style><![CDATA[.B{opacity:.5}.C{fill:#fff}.D{fill:#e0e0e0}.E{fill:#6c63ff}.F{fill:#f5f5f5}]]></style><defs><linearGradient id="A" x1="397.74" y1="717.25" x2="397.74" y2="86.11" gradientUnits="userSpaceOnUse"><stop offset="0" stop-color="gray" stop-opacity=".25"/><stop offset=".54" stop-color="gray" stop-opacity=".12"/><stop offset="1" stop-color="gray" stop-opacity=".1"/></linearGradient><linearGradient id="B" x1="288.88" y1="378.44" x2="288.88" y2="209.65" xlink:href="#A"/><linearGradient id="C" x1="288.88" y1="328.29" x2="288.88" y2="223.1" xlink:href="#A"/><clipPath id="D" transform="translate(-140.93 -67.23)"><path d="M354.5 291.55h150.6v101.52H354.5z" class="C"/></clipPath><linearGradient id="E" x1="288.88" y1="594.94" x2="288.88" y2="426.14" xlink:href="#A"/><linearGradient id="F" x1="288.88" y1="544.79" x2="288.88" y2="439.6" xlink:href="#A"/><clipPath id="G" transform="translate(-140.93 -67.23)"><path d="M354.5 508.05h150.6v101.52H354.5z" class="C"/></clipPath><linearGradient id="H" x1="349.09" y1="477.47" x2="980.23" y2="477.47" xlink:href="#A"/><linearGradient id="I" x1="575.88" y1="502.55" x2="742.23" y2="502.55" xlink:href="#A"/><linearGradient id="J" x1="637.66" y1="754.12" x2="637.66" y2="601.05" xlink:href="#A"/><linearGradient id="K" x1="778.37" y1="673.86" x2="778.37" y2="569.13" xlink:href="#A"/><linearGradient id="L" x1="778.37" y1="774.41" x2="778.37" y2="713.66" xlink:href="#A"/><path id="M" d="M386.157 98.537l316.716 62.94-.953 4.796-316.716-62.94z"/><path id="N" d="M558.5 8.33a4.49 4.49 0 0 1-2.5-5.43 2.16 2.16 0 0 0 .1-.5h0a2.25 2.25 0 0 0-4-1.49h0a2.16 2.16 0 0 0-.25.44 4.49 4.49 0 0 1-5.43 2.5 2.16 2.16 0 0 0-.5-.1h0a2.25 2.25 0 0 0-1.49 4h0a2.16 2.16 0 0 0 .44.25 4.49 4.49 0 0 1 2.5 5.43 2.16 2.16 0 0 0-.1.5h0a2.25 2.25 0 0 0 4 1.49h0a2.16 2.16 0 0 0 .25-.44 4.49 4.49 0 0 1 5.43-2.5 2.16 2.16 0 0 0 .5.1h0a2.25 2.25 0 0 0 1.49-4h0a2.16 2.16 0 0 0-.44-.25z"/></defs><path fill="url(#A)" d="M162.9 86.1h469.7v631.14H162.9z" class="B"/><path fill="#f2f2f2" d="M169.02 94.67h455V703.8h-455z"/><path d="M204.5 120.36h156.56v4.9H204.5z" class="D"/><path opacity=".7" d="M204.5 142.37h156.56v4.9H204.5z" class="E"/><path d="M384.3 120.36h156.56v4.9H384.3zm24.45 139.44H565.3v4.9H408.75zm3.67 13.45h156.56v4.9H412.42zm7.34 13.45h156.56v4.9H419.76zm-11 189.6H565.3v4.9H408.75zm3.67 13.45h156.56v4.9H412.42zm7.34 13.45h156.56v4.9H419.76z" class="D"/><path fill="url(#B)" d="M205.7 209.65h166.35v168.8H205.7z" class="B"/><path d="M206.76 213.32h163.72v161.45H206.76z" class="F"/><path fill="url(#C)" d="M212.53 223.1h152.7v105.2h-152.7z" class="B"/><path d="M213.58 224.32h150.6v101.52h-150.6z" class="C"/><g clip-path="url(#D)" class="E"><path opacity=".4" d="M200.82 322.18l37.92-58.72 15.9 25.7 34.24-35.47 29.36 35.47 25.7-52.6 66.05 105.2-214.05-7.34 4.9-12.23z"/><circle cx="230.17" cy="239" r="11.01" opacity=".4"/></g><path fill="url(#E)" d="M205.7 426.14h166.35v168.8H205.7z" class="B"/><path d="M206.76 429.8h163.72v161.45H206.76z" class="F"/><path fill="url(#F)" d="M212.53 439.6h152.7v105.2h-152.7z" class="B"/><path d="M213.58 440.82h150.6v101.52h-150.6z" class="C"/><g clip-path="url(#G)" fill="#bdbdbd"><path opacity=".4" d="M200.82 538.67l37.92-58.7 15.9 25.7 34.24-35.47 29.36 35.47 25.7-52.6 66.05 105.2-214.05-7.34 4.9-12.23z"/><circle cx="230.17" cy="455.5" r="11.01" opacity=".4"/></g><path transform="matrix(.194919 -.980819 .980819 .194919 -74.16 969.06)" fill="url(#H)" d="M349.1 242.63h631.14v469.7H349.1z" class="B"/><path d="M240.474 661.952l118.73-597.437 446.283 88.7-118.73 597.437z" class="C"/><g class="D"><use xlink:href="#M"/><use xlink:href="#M" x="-90.123" y="453.493"/><path d="M290.55 579.626l244.734 48.636-.953 4.796-244.734-48.636z"/></g><path opacity=".7" d="M285.075 607.213l91.177 18.12-.953 4.796-91.177-18.12zm95.605-481.07l158.353 31.47-.953 4.796-158.353-31.47z" class="E"/><path d="M375.198 153.73l285.526 56.743-.953 4.796-285.526-56.743z" class="D"/><path fill="#3ad29f" opacity=".7" d="M369.718 181.326l69.58 13.828-.953 4.796-69.58-13.828z"/><path d="M364.225 208.914l316.716 62.94-.953 4.796L363.27 213.7z" class="D"/><path transform="matrix(.194919 -.980819 .980819 .194919 -103.27 983.74)" fill="url(#I)" d="M575.87 357.6h166.35v289.88H575.87z" class="B"/><path d="M393.757 327.022l280.73 55.8-31.71 159.56-280.73-55.8z" class="C"/><use xlink:href="#M" x="-27.415" y="137.969" class="D"/><path d="M418.862 354.455l34.8 6.914-23.125 116.364-34.8-6.914z" class="E"/><path fill="#3ad29f" d="M473.615 405.25l34.8 6.914-15.496 77.975-34.8-6.914z"/><path fill="#f55f44" d="M528.846 453.627l34.8 6.914-8.344 41.99-34.8-6.914z"/><path fill="#fdd835" d="M599.81 422.843l34.8 6.914-16.927 85.174-34.8-6.914z"/><g fill="#47e6b1" class="B"><path d="M128.65 645.1h3.67v20.8h-3.67z"/><path d="M140.9 653.65v3.67h-20.8v-3.67z"/></g><use xlink:href="#N" fill="#4d8af0" class="B"/><g fill="#fdd835"><use xlink:href="#N" x="-413.1" y="103.84" class="B"/><use xlink:href="#N" x="-445.8" y="408.9" class="B"/></g><g fill="#f55f44"><circle cx="337.81" cy="28.62" r="7.34" class="B"/><circle cx="7.34" cy="317.46" r="7.34" class="B"/><circle cx="863.76" cy="120.36" r="7.34" class="B"/></g><circle cx="822.17" cy="339.3" r="7.34" fill="#4d8af0" class="B"/><g fill="#47e6b1"><circle cx="37.68" cy="145.22" r="7.34" class="B"/><circle cx="853.29" cy="647.34" r="7.34" class="B"/><circle cx="910.8" cy="430.97" r="7.34" class="B"/></g><path fill="url(#J)" d="M544.42 601.05H730.9v153.07H544.42z"/><path d="M723.82,639a54.55,54.55,0,0,1,109.1,0v34.91h15.27V639a69.82,69.82,0,0,0-139.65,0v34.91h15.27Z" transform="translate(-140.93 -67.23)" fill="url(#K)"/><path d="M585.07 571.02c0-28.923 23.447-52.37 52.37-52.37s52.37 23.447 52.37 52.37v33.52h14.66v-33.52c0-37.02-30-67.03-67.03-67.03s-67.03 30-67.03 67.03v33.52h14.66z" class="F"/><path d="M546.32 602.45h182.24v148.73H546.32z" class="E"/><path d="M546.32 602.45h182.24v148.73H546.32z" class="F"/><path d="M546.32 631.77h182.24v90.07H546.32z" class="E"/><path d="M791.73,727a13.36,13.36,0,1,0-23.08,9.15v28.51a9.72,9.72,0,0,0,19.44,0V736.18A13.3,13.3,0,0,0,791.73,727Z" transform="translate(-140.93 -67.23)" fill="url(#L)"/><path d="M648.96 662.15a11.52 11.52 0 0 0-21.38-5.972 11.52 11.52 0 0 0 1.48 13.862v24.58a8.38 8.38 0 0 0 12.57 7.257 8.38 8.38 0 0 0 4.19-7.257v-24.58a11.47 11.47 0 0 0 3.14-7.89z" opacity=".2"/></svg>