<svg xmlns="http://www.w3.org/2000/svg" xmlns:xlink="http://www.w3.org/1999/xlink" width="1132" height="622.38" xmlns:v="https://vecta.io/nano"><style><![CDATA[.B{opacity:.1}.C{fill:#6c63ff}.D{opacity:.7}.E{fill:#fff}.F{fill:#ec8c9c}.G{fill:#535461}.H{fill:#565388}.I{fill:#dfe5ee}]]></style><defs><linearGradient id="A" x1="773.72" y1="729.73" x2="773.72" y2="298.86" gradientUnits="userSpaceOnUse"><stop offset="0" stop-color="gray" stop-opacity=".25"/><stop offset=".54" stop-color="gray" stop-opacity=".12"/><stop offset="1" stop-color="gray" stop-opacity=".1"/></linearGradient><path id="B" d="M152.05 140.7s-2.5-8.48.47-14.72a13.36 13.36 0 0 0 1.08-8.41 22.44 22.44 0 0 0-1.19-3.95"/><path id="C" d="M154.26 109.68c0 1-1.88 4-1.88 4s-1.9-3-1.9-4a1.89 1.89 0 0 1 2.869-1.751 1.89 1.89 0 0 1 .901 1.751z"/><path id="D" d="M157.37 115.44c-.56.87-3.78 2.38-3.78 2.38s.06-3.56.62-4.43c.566-.873 1.732-1.12 2.605-.555s1.12 1.732.555 2.605z"/><path id="E" d="M157.24 125.28c-.93.47-4.47.14-4.47.14s1.84-3 2.77-3.5c.6-.304 1.317-.264 1.88.104s.887 1.008.85 1.68-.43 1.272-1.03 1.576z"/><path id="F" d="M149.63 118.02c.75.72 4.22 1.47 4.22 1.47s-.85-3.45-1.6-4.17c-.746-.726-1.94-.71-2.665.035s-.71 1.94.035 2.665z"/><path id="G" d="M146.9 135.45c.83.62 4.38.9 4.38.9s-1.3-3.3-2.14-3.92a1.88 1.88 0 0 0-3.132 1.233 1.88 1.88 0 0 0 .892 1.767z"/><path id="H" d="M399.86 104.68s-2.5-8.5.47-14.73a13.34 13.34 0 0 0 1.08-8.41 22.36 22.36 0 0 0-1.19-3.94"/><path id="I" d="M405.18 79.4c-.56.87-3.78 2.38-3.78 2.38s.06-3.55.62-4.43c.566-.873 1.732-1.12 2.605-.555s1.12 1.732.555 2.605z"/><path id="J" d="M405.05 89.25c-.93.47-4.47.15-4.47.15s1.84-3 2.77-3.5c.928-.47 2.06-.098 2.53.83s.098 2.06-.83 2.53z"/><path id="K" d="M397.44 82c.75.73 4.22 1.48 4.22 1.48s-.85-3.45-1.6-4.18c-.746-.726-1.94-.71-2.665.035s-.71 1.94.035 2.665z"/><path id="L" d="M395.47 90.7c.93.47 4.47.14 4.47.14s-1.84-3-2.77-3.5c-.928-.47-2.06-.098-2.53.83s-.098 2.06.83 2.53z"/><path id="M" d="M628.06 109.08a10 10 0 0 1-1.24 2.68 10 10 0 0 1-1.25-2.68 1.25 1.25 0 0 1 1.902-1.175 1.25 1.25 0 0 1 .588 1.175z"/><path id="N" d="M630.12 112.9a10 10 0 0 1-2.5 1.57 10 10 0 0 1 .41-2.93 1.25 1.25 0 0 1 2.222.065 1.25 1.25 0 0 1-.132 1.295z"/><path id="O" d="M630 119.4a9.78 9.78 0 0 1-2.95.09 10 10 0 0 1 1.83-2.32 1.25 1.25 0 0 1 1.12 2.23z"/><path id="P" d="M628.86 124.3a9.86 9.86 0 0 1-2.9.59 9.93 9.93 0 0 1 1.41-2.6 1.25 1.25 0 0 1 1.49 2z"/><path id="Q" d="M625 114.6a10 10 0 0 0 2.8 1 10 10 0 0 0-1.06-2.76 1.24 1.24 0 0 0-2.132.536 1.24 1.24 0 0 0 .392 1.224z"/><path id="R" d="M623.7 120.35a9.92 9.92 0 0 0 3 .1 9.78 9.78 0 0 0-1.84-2.32c-.613-.31-1.36-.063-1.67.55s-.063 1.36.55 1.67z"/><path id="S" d="M623.2 126.13a9.8 9.8 0 0 0 2.9.59 9.55 9.55 0 0 0-1.42-2.59c-.552-.41-1.33-.292-1.74.26s-.292 1.33.26 1.74z"/><path id="T" d="M158.27 37.3v49.34c0 8.13-10.05 12.13-15.5 6.1l-.2-.2c-1.77-2-4.2-4.4-6.62-3.34a12.55 12.55 0 0 0-2 1.41 28.16 28.16 0 0 1 1.26 3.31c2.1 7 .46 14.47-1.78 21.4s-5.12 13.76-5.5 21a64 64 0 0 0 .61 10.44c.76 6.6 1.55 13.3 4.3 19.33 1.5 3.3 3.64 6.63 3.2 10.23a104.12 104.12 0 0 1-35.08-4.45c7.85-7.92 7.84-20.47 7.32-31.6l-1.27-26.9c-.13-2.63-.27-5.34-1.47-7.7-1.64-3.2-5-5.2-8.52-6a37.28 37.28 0 0 0-10.71-.35 5.73 5.73 0 0 1 .74-4.06 51.2 51.2 0 0 0 17.65 4.13 2.25 2.25 0 0 0 2.88-2.62 46.9 46.9 0 0 0-1.21-13.26h0c-3.23.77-6.1 3.32-9.4 3.07-4.36-.33-6.94-5.2-11-6.7-3.15-1.16-6.6-.14-9.9.46s-7.2.56-9.38-2c-2.73-3.23-1-8.35-2.8-12.2-2.52-5.48-10.14-5.58-16.13-4.83a19 19 0 0 1 10.11-7.61c-2.17-3.88-9.9-3.62-9.5-8.3a4.45 4.45 0 0 1 1.5-2.86q3.33-3.06 6.68-6.1l-9.9-3.75c-2.8-1.05-6-2.53-5.63-6.2a6.09 6.09 0 0 1 1.82-3.62l.63-.64a13.94 13.94 0 0 1 9.86-4l58-16.74a36.8 36.8 0 0 1 47 35.51z"/><path id="U" d="M623.55 60v27.34a5 5 0 0 1-8.6 3.39l-.1-.12c-1-1.1-2.32-2.43-3.67-1.85a6.53 6.53 0 0 0-1.11.78 17 17 0 0 1 .7 1.84c1.16 3.85.25 8-1 11.85s-2.83 7.62-3 11.65a35 35 0 0 0 .34 5.78c.42 3.65.86 7.37 2.38 10.7.84 1.83 2 3.68 1.77 5.67a57.34 57.34 0 0 1-19.44-2.47c4.35-4.38 4.35-11.34 4.06-17.5q-.36-7.45-.7-14.9a10.24 10.24 0 0 0-.82-4.26 6.94 6.94 0 0 0-4.72-3.33 20.65 20.65 0 0 0-5.93-.19 3.16 3.16 0 0 1 .41-2.25 28.23 28.23 0 0 0 9.78 2.29 1.25 1.25 0 0 0 1.59-1.46 25.83 25.83 0 0 0-.66-7.34h0c-1.8.42-3.38 1.84-5.22 1.7-2.4-.2-3.85-2.9-6.12-3.72-1.75-.64-3.66-.08-5.5.25s-4 .3-5.2-1.1c-1.52-1.8-.57-4.63-1.55-6.76-1.4-3-5.62-3.1-8.94-2.68a10.53 10.53 0 0 1 5.6-4.21c-1.2-2.16-5.5-2-5.27-4.6a2.49 2.49 0 0 1 .84-1.59l3.7-3.38-5.5-2.08c-1.55-.58-3.34-1.4-3.12-3.44a3.36 3.36 0 0 1 1-2l.36-.36a7.68 7.68 0 0 1 5.46-2.23l32.1-9.24a20.39 20.39 0 0 1 26 19.68z"/><path id="V" d="M970.23 44.02V63.2a3.48 3.48 0 0 0 6 2.37l.07-.08c.7-.77 1.63-1.7 2.58-1.3a5.23 5.23 0 0 1 .78.55 10.06 10.06 0 0 0-.49 1.29c-.82 2.7-.18 5.63.7 8.33s2 5.35 2.14 8.18a25.15 25.15 0 0 1-.24 4.06 24.84 24.84 0 0 1-1.68 7.52c-.58 1.3-1.4 2.6-1.24 4a40.48 40.48 0 0 0 13.66-1.74c-3.06-3.08-3.06-8-2.85-12.3l.5-10.47a7.21 7.21 0 0 1 .57-3 4.87 4.87 0 0 1 3.32-2.34 14.54 14.54 0 0 1 4.17-.14 2.3 2.3 0 0 0-.29-1.58 19.87 19.87 0 0 1-6.87 1.61 1.13 1.13 0 0 1-.85-.19 1.1 1.1 0 0 1-.27-.83 17.87 17.87 0 0 1 .47-5.16h0c1.25.3 2.37 1.3 3.66 1.2 1.7-.13 2.7-2 4.3-2.6 1.23-.45 2.57-.05 3.86.18s2.8.22 3.64-.78c1.07-1.25.4-3.25 1.1-4.74 1-2.13 4-2.17 6.28-1.88a7.34 7.34 0 0 0-3.94-3c.85-1.52 3.86-1.4 3.7-3.23a1.68 1.68 0 0 0-.58-1.11l-2.6-2.38 3.86-1.46c1.1-.4 2.34-1 2.2-2.42a2.39 2.39 0 0 0-.71-1.4l-.25-.25a5.39 5.39 0 0 0-3.84-1.57L988.5 30a14.33 14.33 0 0 0-18.3 13.82z"/><path id="W" d="M776.2 208.32a5.82 5.82 0 0 1-4.47-9.55c10.78-12.9 28.8-35 31.2-41.4 3.44-9.26 126.77-41.68 126.77-41.68s53.73-21.62 61.3-34c4.5-7.3 26.6-24.9 43.9-38 13.37-10.16 11.13 5 27.34 9.32h0c12.66-10.48 45.66-8 45.66 22.22l23.9 120.84a10.27 10.27 0 0 1-10.07 12.27z"/><path id="X" d="M7.4 209.8s71.67-75.62 149.76-72.56 223.57-28.88 223.57-28.88 116.6-22.44 144.4-10.68S595.74 128 625.7 128s56.7 84.28 56.7 84.28L7.4 209.8z"/><path id="Y" d="M822.47 530.63l-19.38 18-4.75-8.3-8.12-14.14c-13.2-18.35-54.73-39.46-54.73-39.46-8.82-3.64-12.2-7.27-13.47-9.42-1-1.7-2-3.4-3.15-5a67 67 0 0 1-7.34-14.78 119.91 119.91 0 0 1-4.19-14.51c-1-4.3-1.56-8-1.93-10.57-.32-2.3-.45-3.66-.45-3.66l3-10.88 9.38-34.25 35-1.7.14 37.84v9.88l-.12 10.66c-.1 3.76-.2 6.56-.34 7.84a29.48 29.48 0 0 0-.21 4.7c.25 5.93 2.8 11.7 12 14.68 11.58 3.78 32.5 23.86 34.4 33.12 1.24 6.1 11.38 17.15 18.17 24l4.1 4.06 1.98 1.9z"/></defs><g class="C"><use xlink:href="#B"/><use xlink:href="#C"/><use xlink:href="#D"/><use xlink:href="#E"/><path d="M155.46 132.7c-.84.62-4.38.9-4.38.9s1.3-3.3 2.14-3.93a1.88 1.88 0 0 1 2.24 3z"/><use xlink:href="#F"/><path d="M147.66 126.73c.93.46 4.47.14 4.47.14s-1.84-3-2.77-3.5a1.89 1.89 0 0 0-1.7 3.37z"/><use xlink:href="#G"/></g><g class="D E"><use xlink:href="#B"/><use xlink:href="#C"/><use xlink:href="#D"/><use xlink:href="#E"/><path d="M155.46 132.7c-.84.62-4.38.9-4.38.9s1.3-3.3 2.14-3.93a1.88 1.88 0 0 1 2.24 3z"/><use xlink:href="#F"/><path d="M147.66 126.73c.93.46 4.47.14 4.47.14s-1.84-3-2.77-3.5a1.89 1.89 0 0 0-1.7 3.37z"/><use xlink:href="#G"/></g><g class="C"><use xlink:href="#H"/><path d="M402.07 73.65c0 1-1.88 4.06-1.88 4.06s-1.9-3-1.9-4.06a1.89 1.89 0 0 1 3.77 0z"/><use xlink:href="#I"/><use xlink:href="#J"/><path d="M403.27 96.68c-.84.6-4.38.9-4.38.9s1.3-3.3 2.14-3.92a1.88 1.88 0 0 1 2.24 3z"/><use xlink:href="#K"/><use xlink:href="#L"/><use xlink:href="#G" x="247.82" y="-36.02"/></g><g class="D E"><use xlink:href="#H"/><path d="M402.07 73.65c0 1-1.88 4.06-1.88 4.06s-1.9-3-1.9-4.06a1.89 1.89 0 0 1 3.77 0z"/><use xlink:href="#I"/><use xlink:href="#J"/><path d="M403.27 96.68c-.84.6-4.38.9-4.38.9s1.3-3.3 2.14-3.92a1.88 1.88 0 0 1 2.24 3z"/><use xlink:href="#K"/><use xlink:href="#L"/><use xlink:href="#G" x="247.82" y="-36.02"/></g><g class="C"><path d="M626.6 129.6s-1.65-5.6.3-9.74a8.83 8.83 0 0 0 .72-5.56 14.33 14.33 0 0 0-.79-2.61"/><use xlink:href="#M"/><use xlink:href="#N"/><use xlink:href="#O"/><use xlink:href="#P"/><use xlink:href="#Q"/><use xlink:href="#R"/><use xlink:href="#S"/></g><g class="D E"><path d="M626.6 129.6s-1.65-5.6.3-9.74a8.83 8.83 0 0 0 .72-5.56 14.33 14.33 0 0 0-.79-2.61"/><use xlink:href="#M"/><use xlink:href="#N"/><use xlink:href="#O"/><use xlink:href="#P"/><use xlink:href="#Q"/><use xlink:href="#R"/><use xlink:href="#S"/></g><use xlink:href="#T" class="C"/><use xlink:href="#T" class="D E"/><use xlink:href="#U" class="C"/><use xlink:href="#U" class="D E"/><use xlink:href="#V" class="C"/><use xlink:href="#V" class="D E"/><g class="C"><path d="M763.65 208.32h45.72c16.84 0-47.3 42-61.46 52.1-16.24 11.57-38.25 15.9-59.06 20.74a705.39 705.39 0 0 0-86 25.91c-5.08 1.9-10.3 3.95-13.84 7.45-3.94 3.9-5.27 9.05-7.64 13.7-9.28 18.18-33.47 27.66-54.84 37.1s-44 23.4-45 43c-.42 7.8 3.9 16.53 13 19.23 11 3.3 26.66-2.55 33.43 5.2 2.7 3.1 2.52 7.26 1.82 11-4.5 23.87-25 43.38-43.84 62.14-9.05 9-17.45 23.38-6.37 30.78 8.85 5.9 24.82 2.23 31.33 9.86 2.24 2.64 2.64 6 2.66 9.2.14 22.9-17.05 45.34-42.53 55.46-16.48 6.56-35.25 8.1-53.58 9.13-23.18 1.33-46.4 2.06-69.65 2-12.08 0-24.22-.32-36.14-1.92s-23.5-4.5-35-7.42l-191.3-48.17c-6.08-1.53-12.36-3.15-17.12-6.57-5.3-3.83-8.07-9.45-9.75-15-9-30.12 8.32-62 1.33-92.5-7.63-33.3-42.6-58.53-54.55-91-8.08-22-5-45.5-1.8-68.27l11.78-85.3c218.72-7.62 438.7-10.43 657.3-.62 53.74 2.37 37.73 8.42 91.1 2.75z" class="B"/><use xlink:href="#W"/></g><use xlink:href="#W" class="D E"/><use xlink:href="#X" class="C"/><use xlink:href="#X" class="D E"/><path d="M784.85 586.58a6.6 6.6 0 0 1-1.1 8.11 268.81 268.81 0 0 0 43 7.94c3.72.38 8.06.44 10.5-2.4 1.63-1.92 2-4.77 3.8-6.5a9.12 9.12 0 0 1 3.95-1.85c4.48-1.25 9.22-1.88 13.27-4.16s7.32-6.9 6.16-11.4c-1.34-5.18-7.37-7.35-12.56-8.7l-16.17-4.22a167.94 167.94 0 0 0-29.46-5.21c-5.54-.44-14.56-2.8-19.83-.38-6.52 3-3.88 8.86-6.06 14.64-1.07 2.83-6.1 7.17-3.88 10.66 1.27 2 6.32.2 8.38 3.47zM607.18 551.7s-60.1-2.45-42 12 34.6 16.37 42 25.33 9.1 7.6 35.5 10.26 52.55 2.52 53.52-8 3.68-26.8 0-31.57-89.03-8.02-89.03-8.02z" class="B C"/><path d="M1062.78 621.72l2.1-.78-7.36-12.94c4.58-2.9 3.32-7.78 4.52-31.9 1.44-28.93-11.27-30.22-13.2-30.24h-.24c-56.15-30-187.17-32.72-258.3-31.78a21.89 21.89 0 0 0-2.18-8.7 14.84 14.84 0 0 1-1.77-7.12h0v-2.1s-2.1-20.24-2.2-35.45c.05-6 .46-11 1.52-13.2 1.38-2.84 1.95-10.06 1.9-18.5.1-15.08-2-35.18-5.2-40.86s-12.13-13.37-18.65-19.34a19.74 19.74 0 0 1-6.29-12.33c0 0-1.24 0-3.23.23l-.33-1v-.1a3.83 3.83 0 0 0 2.71-.76 6.29 6.29 0 0 0 1.34-1.69l6.36-10.32a6 6 0 0 0 1.27-3.67c-.23-2.13-2.7-3.86-2.1-5.92.26-.88 1-1.5 1.44-2.32a6.21 6.21 0 0 0 .48-2.58c.12-2.88.08-6.15-2-8.1a3.22 3.22 0 0 1-.94-1.08 3 3 0 0 1 .06-1.54c.53-3-1.06-6.07-3.33-8.1s-5.14-3.18-7.95-4.3-5.93-2.2-8.77-1.2c.13-2.8-3-4.76-5.72-4.75s-5.34 1.3-8 2a37.82 37.82 0 0 1-8.43.94 6.4 6.4 0 0 1-3.11-.4 2.25 2.25 0 0 1-1.27-2.62 2.26 2.26 0 0 0-2.75.35 11.3 11.3 0 0 0-1.78 2.48 11.09 11.09 0 0 1-4 3.74 8.37 8.37 0 0 0 .75-3.85c-1-.65-2.3.17-2.75 1.23a16.7 16.7 0 0 0-.63 3.41c-.62 2.88-3.2 4.94-4.2 7.7a9.33 9.33 0 0 0 1.78 8.79 13.53 13.53 0 0 0 4.17 3.38c-.1.3-.2.58-.3.88-3.648 12.614 2.756 25.956 14.88 31l.65 1.3c1.46 2.93 3.28 6.76 4.78 10.57l.26.65a21.29 21.29 0 0 0-1.15 2.05c0 0 4.13 4.7 0 9.73 0 0-15 11.34-14.52 38.4a79.55 79.55 0 0 0 1.09 13.89 432.3 432.3 0 0 1 5.67 61.34c-2.54 2.17-6.24 10.43-9.42 18.5-184.77-2.23-225.8 30.6-234.8 43.75a13.63 13.63 0 0 0-2.49 5.32c-10.33 22.06 2.58 46.22 2.58 46.22l.84 1.1c24.2 31.16 61.88 46.3 213.5 50.9v.47l-.2 16.5a41.37 41.37 0 0 1-4.45 18h0a3.33 3.33 0 0 1 0 1v.08c-.25 2.43-2.72 8.55-20.35 12.84 0 0-27.12-4.25-13.08 7.74 12 10.3 47 11 56.7 11.05a2.34 2.34 0 0 0 2.31-2.54l-1.87-21.28-.1-1h.62c-1.2-11.8 6.54-41.87 6.54-41.87a3.53 3.53 0 0 0 .21-.32l29 .5c27.78.36 53.76-.4 77.94-1.95a47 47 0 0 1 4.06 4.9l12.92 22.77v1.1l.17 23.47s-23.16 20.25 1.38 14.16l8.9-.9a5.36 5.36 0 0 0 3-1.35 99 99 0 0 0 11 2.57 28.21 28.21 0 0 0 4.64.39 27.06 27.06 0 0 0 22-11.37l45.5 2.06 90.93 6.16c1.33.13 32.8 3.1 47.28-18.12 12.2-17.63 8.64-46.34-10.38-85.36zM863.26 725.9a98.23 98.23 0 0 1-10-2.3.54.54 0 0 1 0-.11l3-6.8c6.9-.2 16.75-.2 30.8.2a24.49 24.49 0 0 1-23.81 9zm25.28-11c-14.1-.42-24.17-.46-31.4-.25l13.2-30.3a4.65 4.65 0 0 0-.53-4.62c-2.13-2.9-6.22-7.7-10.64-9.24h0a8.55 8.55 0 0 0-2-.45l-1.4-1.33-.73-.7c6.8-.23 19.5 1.66 31.7 15.77 8.6 10 7.16 21.67 2.94 29.3l-1.14 1.8zm183.08-9c-13.8 20.2-45.07 17.27-45.4 17.23s-46.72-3.73-92.6-6.26l-42.66-1.93c.18-.3.35-.6.52-.9a27.22 27.22 0 0 0-3.19-31.68c-13.9-16.1-28.56-17-35.2-16.36l-1.43-1.44c-1.55-1.58-3.28-3.38-5-5.3 123.1-11.3 193.05-42.93 203.67-48l1.43-.7 1.63-.6 4.57 13.63 2.93-1.1c18.7 38.35 22.35 66.4 10.76 83.4z" transform="translate(-34 -138.81)" fill="url(#A)"/><path d="M674.2 586.47a2.31 2.31 0 0 1-2.3 2.5c-9.65 0-44.5-.75-56.5-10.9-14-11.84 13-7.64 13-7.64 17.57-4.24 20-10.28 20.28-12.68a.25.25 0 0 1 0-.08 3.19 3.19 0 0 0 0-1l.7-.4 2.65-1.57 19.9 6 .4 4.7z" class="F"/><path d="M832.15 587.6a27.83 27.83 0 0 1-4.61-.38 111.53 111.53 0 0 1-16-4.06c-6.3-2.08-8.62-3.6-8.25-5.45.35-1.7 1-4.9 49.8-3.43.4-.6.78-1.2 1.12-1.82 4.2-7.53 5.65-19.1-2.93-28.92-17.7-20.3-36.42-15-36.6-14.93l-.6-2c.2-.06 20.14-5.8 38.75 15.54a26.7 26.7 0 0 1 3.17 31.31c-.16.3-.34.6-.5.9l42.5 1.9 92.3 6.18c.46.04 31.5 2.94 45.24-17 11.76-17.08 7.8-45.5-11.76-84.44l1.84-.93c19.93 39.7 23.84 68.8 11.6 86.54-14.45 21-45.8 18-47.12 17.9-.43 0-45.44-3.6-90.6-6.1l-45.36-2a27.05 27.05 0 0 1-21.99 11.19zm-26.8-9.5c.28.34 1.5 1.37 6.8 3.1a108.53 108.53 0 0 0 15.71 4 24.54 24.54 0 0 0 23.69-8.89c-37.56-1.12-45.05.67-46.2 1.78z" class="G"/><path d="M803.43 543.5l-.34 5.15.17 24.27s-23.08 20 1.37 14l8.87-.9a5.43 5.43 0 0 0 4.41-3.2l17-38.7a4.56 4.56 0 0 0-.52-4.56c-2.8-3.75-8.9-10.77-14.75-9.44-7.9 1.8-16.2 13.37-16.2 13.37z" class="F"/><path d="M1026 437.3c-1.55 30.88 1 29.85-10.3 34l-1.42.7C1001 478.26 895 525.64 708.5 523.25c-197.74-2.55-241.13-17.2-267.95-51.4l-.85-1.1s-12.86-23.85-2.57-45.64a13.64 13.64 0 0 1 2.49-5.26c9.5-13.74 54.72-49.24 267.7-42.44 0 0 226.48-11.66 305.22 30h.24c1.92.05 14.58 1.32 13.2 29.88z" class="C"/><use xlink:href="#Y" class="H"/><use xlink:href="#Y" class="B"/><path d="M752.45 419.72v9.88c-10.08 2.43-33.84 2.8-47 2.78l-.46-3.66 3-10.88c13.32 2.4 35.1 2.13 44.46 1.88zM752 448.1a29.41 29.41 0 0 0-.21 4.69c-26.35-2.2-36.47 1.15-40.22 4.67a119.91 119.91 0 0 1-4.19-14.51c10.34-3.16 35-2.93 45-2.7l-.38 7.84z" class="I"/><path d="M672.33 565.45h-.5l-23.16-7.72a.25.25 0 0 1 0-.07l.66-1.37 2.65-1.57 19.9 6z" class="B"/><path d="M747.84 353.74l3.43 4.63s-.47 5.66 1.74 9.1 10.1 31.05-27 38.94c0 0-21.1 36-35.85 50.27l-5.66 10.64s-1.2 12.52 0 18.52 3.77 24.7-5.15 37.23c0 0-7.72 29.68-6.52 41.35h-1l-23.16-7.72a40.44 40.44 0 0 0 4.41-17.84l.22-16.3v-59.58a64.63 64.63 0 0 1 3.17-20h0a35.47 35.47 0 0 0 1.76-10.52c.1-7.46 1-21.82 6-32.9 2.46-5.5 4.9-11 7-16.7 3.52-9.44 8.6-21.82 11.8-24.5l5-9.43 26.65 2.57z" class="H"/><path d="M724 232.88s-32.43 20.15-29.7 14.5c1.15-2.38-.45-7.88-2.7-13.47-1.5-3.76-3.3-7.55-4.76-10.44s-2.65-5.1-2.65-5.1 33.46-20.23 32.25-12.5a22.06 22.06 0 0 0 .69 7.51c.47 2 1.08 4.2 1.77 6.3a145 145 0 0 0 5.1 13.21z" class="F"/><path d="M440.56 471.84l-.85-1.1s-12.86-23.85-2.57-45.64a13.64 13.64 0 0 1 2.49-5.26z" class="G"/><path d="M550.37 451.45c0 9.94-8.06 18-18 18s-18-8.06-18-18 8.06-18 18-18c.55 0 1.1 0 1.64.07 9.27.848 16.363 8.622 16.36 17.93z" fill="none" stroke="#535461" stroke-miterlimit="10"/><path d="M542.65 460.7l-13.38 4.55-9.58-26.6a18 18 0 0 1 12.67-5.22l1.64.07z" class="G"/><path d="M714.36 210.98c-4.5 7-9.62 14.1-18.6 14.1a25.07 25.07 0 0 1-8.91-1.62l-2.65-5.1s33.46-20.23 32.25-12.5c-.3 1.93-2.74 2.2-2.08 5.12z" class="B"/><path d="M721.14 198.66c0 14.023-11.367 25.4-25.4 25.4s-25.4-11.367-25.4-25.4a25 25 0 0 1 1-7.07c3.528-12.133 15.44-19.825 27.95-18.048s21.81 12.482 21.82 25.118z" class="F"/><path d="M724 232.88s-32.43 20.15-29.7 14.5c1.15-2.38-.45-7.88-2.7-13.47 6.42-10.67 20.65-13.5 27.3-14.23a145 145 0 0 0 5.1 13.21z" class="B"/><path d="M722.45 222.5s-21-1.18-28.75 14.6a14.74 14.74 0 0 1-3 11.13s-19.2 14.4-13.38 49.58a410 410 0 0 1 5.68 62.62c0 0 5-4.63 15.8 0s52.5 0 52.5 0-4.46-42.37-.68-50.1 1.52-48.16-3.28-56.57c-3.23-5.65-12.1-13.2-18.6-19.1a19.47 19.47 0 0 1-6.27-12.17z" class="B"/><path d="M722.45 220.44s-24 .34-31.74 16.12c0 0 4.12 4.64 0 9.6 0 0-19.2 14.4-13.38 49.58a410 410 0 0 1 5.67 62.62c0 0 5-4.63 15.8 0s52.5 0 52.5 0-4.46-42.37-.68-50.1 1.52-48.16-3.28-56.57c-3.23-5.64-12.1-13.2-18.6-19.1a19.47 19.47 0 0 1-6.27-12.17z" class="I"/><path d="M720.7 371.76l-2.7 5.66 2.2 10.88a52.93 52.93 0 0 0 11.69 24.17c5.9 6.83 13 11.5 16.64.63 4.5-13.5 1-20.3-1.9-23.37a65.53 65.53 0 0 1-6.77-8.69c-2.87-4.18-6.87-9.13-11.17-10.85-7.9-3-8 1.57-8 1.57z" class="F"/><path d="M705.64 301.4l-.06 8.15 1.42 15.36a101.07 101.07 0 0 1 6.58 19c3 12 3.37 35.52 3.37 35.52s15.9-5.1 19-3.57c0 0 .92-35-2.34-46s-1.9-25.88-1.9-25.88z" class="B"/><path d="M706.67 299.36L705 310l3 12.87a101.07 101.07 0 0 1 6.58 19c3 12 3.37 35.52 3.37 35.52s14.75-4 17.84-2.4c0 0 2.06-36.2-1.2-47.17s-1.9-25.9-1.9-25.9z" class="H"/><path d="M721.14 198.66a25.32 25.32 0 0 1-9.55 19.84l-1.28-.43a5.18 5.18 0 0 1-1.7-.83 4.4 4.4 0 0 1-1.21-2.05c-.93-2.76-1.2-5.72-2.25-8.46s-3.1-5.35-6-5.83a1.35 1.35 0 0 0-.95.11 1.71 1.71 0 0 0-.57 1.07 8.44 8.44 0 0 1-5.07 5.51c-1.5.56-4.2 1-5.63 0-1.25-.87-1.2-2.35-1.5-3.72-.8-3.77-2.66-7.58-6.32-9.3a30.24 30.24 0 0 0-3.84-1.26 18.34 18.34 0 0 1-3.9-1.65c3.528-12.133 15.44-19.825 27.95-18.048s21.81 12.482 21.82 25.118z" class="B"/><path d="M679.1 193.47a29.37 29.37 0 0 0-3.85-1.26 15.7 15.7 0 0 1-7.75-4.82 9.18 9.18 0 0 1-1.78-8.69c1-2.73 3.57-4.77 4.18-7.62a17.7 17.7 0 0 1 .63-3.35c.46-1.05 1.8-1.86 2.75-1.22a8.16 8.16 0 0 1-.75 3.8 11.18 11.18 0 0 0 4-3.69 10.32 10.32 0 0 1 1.76-2.43 2.24 2.24 0 0 1 2.74-.34 2.21 2.21 0 0 0 1.26 2.58 6.5 6.5 0 0 0 3.1.4 38.78 38.78 0 0 0 8.41-.94c2.66-.7 5.23-2 8-2s5.84 1.93 5.7 4.7c2.83-1 5.93.1 8.73 1.22s5.66 2.27 7.92 4.26 3.85 5 3.3 8a2.92 2.92 0 0 0-.05 1.52 3.06 3.06 0 0 0 .93 1.07c2.1 1.93 2.12 5.17 2 8a6 6 0 0 1-.47 2.54c-.4.8-1.18 1.42-1.44 2.3-.6 2 1.85 3.74 2.1 5.85a5.93 5.93 0 0 1-1.27 3.62l-6.36 10.24a6.41 6.41 0 0 1-1.33 1.68c-1.64 1.3-4 .68-6 0l-5.26-1.8a5.33 5.33 0 0 1-1.69-.83 4.5 4.5 0 0 1-1.21-2.08c-.94-2.77-1.2-5.73-2.24-8.47s-3.1-5.35-6-5.82a1.3 1.3 0 0 0-.95.1 1.71 1.71 0 0 0-.57 1.07 8.42 8.42 0 0 1-5.07 5.51c-1.5.56-4.2 1-5.63 0-1.25-.88-1.2-2.36-1.5-3.74-.83-3.83-2.68-7.63-6.34-9.35z" fill="#603456"/><g class="G"><ellipse cx="915.29" cy="400.49" rx="21.62" ry="9.26"/><ellipse cx="915.29" cy="488.25" rx="21.62" ry="9.26"/><ellipse cx="975.51" cy="442.95" rx="21.62" ry="9.26"/><path d="M1026 437.3c-1.55 30.88 1 29.85-10.3 34l-1.42.7-1.43-64.52c1.87-.01 14.53 1.26 13.15 29.82z"/><path d="M1015.9 466.63l5.92 17.5 6.95-2.58-10.8-18.78-2.06 3.86z"/></g><path d="M703.06 250.43s-17.15-2.54-7.37 38.12c0 0 8.06 20.58 8.23 23.5 0 0 15.27-11.32 27.45-2.74 0 0 2.4-24.88-3.77-36.55 0 0-4.17-28.4-24.54-22.33z" class="B"/><path d="M704.1 248.37s-17.15-2.54-7.37 38.12c0 0 8.06 20.6 8.23 23.5 0 0 15.27-11.32 27.45-2.74 0 0 2.4-24.88-3.77-36.55 0 0-4.17-28.4-24.54-22.33z" class="I"/><path d="M703.24 288.38s5.66-3.78 6.52-6.18 5.5 1.9 3.52 3.95-10.04 2.23-10.04 2.23z" class="H"/><path d="M820.4 528.66l-20 15.32-2.08-3.64 17.94-15.74 4.14 4.06z" class="G"/><path d="M734.34 267.6s5.85 23.37 3.45 31.76m65.3 249.28v1.1l20.7-19.3-1.32.2-19.38 18zM692.67 241.86s25.77-7.67 31.33-13.67" class="B"/><path d="M158.27 437.2c34-.27 62.8-7.3 83.38-6.88s39.12-.78 58.68 3.43M53.07 389.2c34-.26 62.8-7.3 83.38-6.87s39.1-.78 58.67 3.43m74.12 147.04c34-.4 62.8-11.08 83.38-10.42s39.1-1.2 58.67 5.2m-126.4-45.04c34-.75 62.8-21 83.38-19.75s39.12-2.26 58.68 9.85m-82-225.44c34-.13 62.8-3.65 83.38-3.44s39.12-.4 58.68 1.72M142.83 231.6c34-.13 62.8-3.65 83.38-3.43s39.12-.4 58.67 1.7m-10.98 81.85c34-.14 62.8-3.66 83.38-3.44s39.12-.4 58.68 1.7M71.8 269.32c34-.13 62.8-3.65 83.38-3.44s39.12-.4 58.68 1.72" class="B C"/></svg>